<?xml version="1.0" encoding="UTF-8"?>
<svg id="Capa_1" data-name="Capa 1" xmlns="http://www.w3.org/2000/svg" viewBox="0 0 370.96 99.6">
  <path d="M34.39,78.53c-6.43,0-12.24-1.31-17.44-3.93-5.2-2.62-9.33-6.51-12.38-11.68C1.52,57.75,0,51.42,0,43.93c0-5.7.93-10.7,2.78-15.01,1.85-4.31,4.39-7.92,7.6-10.83,3.21-2.92,6.92-5.1,11.13-6.56,4.21-1.46,8.66-2.19,13.37-2.19,3.78,0,7.26.43,10.44,1.29,3.18.86,6.16,2.05,8.95,3.58l.4,12.23h-.99l-4.97-7.95c-.66-1.26-1.39-2.4-2.19-3.43-.8-1.03-1.79-1.8-2.98-2.34-.99-.46-1.97-.81-2.93-1.04-.96-.23-2.17-.35-3.63-.35-3.84,0-7.34,1.03-10.49,3.08-3.15,2.05-5.67,5.45-7.55,10.19-1.89,4.74-2.83,11.22-2.83,19.43s.89,14.6,2.68,19.33c1.79,4.74,4.22,8.12,7.31,10.14,3.08,2.02,6.54,3.03,10.39,3.03,2.12,0,3.81-.15,5.07-.45,1.26-.3,2.52-.75,3.78-1.34,1.26-.53,2.22-1.31,2.88-2.34.66-1.03,1.26-2.14,1.79-3.33l4.37-9.74h.99l-.3,14.21c-2.78,1.46-5.9,2.65-9.34,3.58-3.45.93-7.22,1.39-11.33,1.39Z"/>
  <path d="M85.09,78.23c-5.04,0-9.41-1.04-13.12-3.13-3.71-2.09-6.58-5.05-8.6-8.9-2.02-3.84-3.03-8.35-3.03-13.52s1.08-9.64,3.23-13.42c2.15-3.78,5.1-6.69,8.85-8.75,3.74-2.05,7.97-3.08,12.67-3.08s8.91,1.01,12.62,3.03c3.71,2.02,6.64,4.92,8.8,8.7,2.15,3.78,3.23,8.28,3.23,13.52s-1.01,9.76-3.03,13.57c-2.02,3.81-4.87,6.76-8.55,8.85s-8.04,3.13-13.07,3.13ZM85.09,76.24c2.32,0,4.17-.66,5.57-1.99,1.39-1.33,2.4-3.68,3.03-7.06.63-3.38.94-8.15.94-14.31s-.32-11.03-.94-14.41c-.63-3.38-1.64-5.73-3.03-7.06-1.39-1.32-3.25-1.99-5.57-1.99s-4.19.66-5.62,1.99c-1.43,1.33-2.45,3.68-3.08,7.06-.63,3.38-.94,8.19-.94,14.41s.31,10.93.94,14.31c.63,3.38,1.66,5.73,3.08,7.06,1.42,1.33,3.3,1.99,5.62,1.99Z"/>
  <path d="M114.11,76.74v-.99l1.39-.4c1.26-.33,2.14-.89,2.63-1.69.5-.79.78-1.85.84-3.18v-31.11c0-1.46-.23-2.53-.7-3.23-.46-.7-1.36-1.18-2.68-1.44l-1.49-.4v-.99l17-5.77.99.99.79,6.76c2.19-2.19,4.69-4.04,7.5-5.57,2.82-1.52,5.75-2.29,8.8-2.29s5.73.65,7.65,1.94c1.92,1.29,3.38,3.3,4.37,6.01,2.58-2.45,5.38-4.39,8.4-5.81,3.02-1.42,5.95-2.14,8.8-2.14,4.71,0,8.17,1.13,10.39,3.38,2.22,2.25,3.33,5.8,3.33,10.64v29.12c0,2.58,1.19,4.21,3.58,4.87l1.09.3v.99h-22.96v-.99l.99-.3c1.26-.4,2.14-.99,2.63-1.79.5-.79.75-1.85.75-3.18v-30.42c0-2.78-.5-4.69-1.49-5.72-.99-1.03-2.58-1.54-4.77-1.54-1.72,0-3.4.38-5.02,1.14-1.62.76-3.33,1.91-5.12,3.43.33,1.06.55,2.22.65,3.48.1,1.26.15,2.58.15,3.98v25.74c.07,2.58,1.26,4.21,3.58,4.87l.9.3v.99h-23.06v-.99l1.39-.4c1.26-.4,2.14-.98,2.63-1.74.5-.76.75-1.8.75-3.13v-30.32c0-2.65-.48-4.54-1.44-5.67-.96-1.13-2.6-1.69-4.92-1.69-1.52,0-3.05.38-4.57,1.14-1.53.76-3.12,1.87-4.77,3.33v33.3c0,2.58,1.16,4.21,3.48,4.87l.89.3v.99h-23.36Z"/>
  <path d="M199.2,99.6v-.99l1.19-.4c2.45-.66,3.68-2.25,3.68-4.77v-54.07c0-1.46-.25-2.55-.75-3.28-.5-.73-1.41-1.23-2.73-1.49l-1.39-.3v-.99l16.9-5.77.99.99.89,3.08c2.19-1.33,4.62-2.35,7.31-3.08,2.68-.73,5.45-1.09,8.3-1.09,5.7,0,10.22,2.17,13.57,6.51,3.35,4.34,5.02,10.55,5.02,18.64s-1.84,14.21-5.52,18.79-8.86,6.86-15.56,6.86c-5.24,0-9.64-.76-13.22-2.29v17.2c0,2.65,1.19,4.31,3.58,4.97l1.89.5v.99h-24.15ZM226.33,75.35c3.31,0,5.95-1.72,7.9-5.17,1.95-3.44,2.93-9.18,2.93-17.2s-.93-13.63-2.78-16.85c-1.86-3.21-4.54-4.82-8.05-4.82-2.45,0-5.17.79-8.15,2.39v40.06c2.52,1.06,5.23,1.59,8.15,1.59Z"/>
  <path d="M270.56,78.23c-3.84,0-7.07-1.09-9.69-3.28-2.62-2.19-3.93-5.33-3.93-9.44,0-3.11,1.59-5.98,4.77-8.6,3.18-2.62,8.18-4.59,15.01-5.91,1.06-.2,2.25-.41,3.58-.65,1.33-.23,2.72-.48,4.17-.75v-7.85c0-4.51-.55-7.67-1.64-9.49-1.09-1.82-2.8-2.73-5.12-2.73-1.59,0-2.85.51-3.78,1.54-.93,1.03-1.53,2.8-1.79,5.32l-.2,1.09c-.13,2.85-.83,4.94-2.09,6.26-1.26,1.33-2.82,1.99-4.67,1.99-1.72,0-3.15-.53-4.27-1.59-1.13-1.06-1.69-2.49-1.69-4.27,0-2.72.94-5,2.83-6.86,1.89-1.85,4.39-3.25,7.5-4.17,3.11-.93,6.49-1.39,10.14-1.39,5.9,0,10.45,1.44,13.67,4.32,3.21,2.88,4.82,7.57,4.82,14.06v21.97c0,2.98,1.39,4.47,4.17,4.47h2.19l.89.8c-1.26,1.59-2.63,2.82-4.12,3.68s-3.6,1.29-6.31,1.29c-2.92,0-5.22-.68-6.91-2.04-1.69-1.36-2.8-3.16-3.33-5.42-1.99,2.12-4.03,3.93-6.11,5.42-2.09,1.49-4.79,2.24-8.1,2.24ZM276.63,72.16c1.33,0,2.57-.31,3.73-.94,1.16-.63,2.54-1.61,4.12-2.93v-16.7c-.66.13-1.33.27-1.99.4-.66.13-1.43.27-2.29.4-3.05.8-5.48,2.14-7.31,4.03-1.82,1.89-2.73,4.42-2.73,7.6,0,2.72.63,4.76,1.89,6.11,1.26,1.36,2.78,2.04,4.57,2.04ZM273.65,19.78c.93-1.72,1.99-3.66,3.18-5.81,1.19-2.15,2.62-4.79,4.27-7.9,1.13-2.12,2.22-3.66,3.28-4.62,1.06-.96,2.29-1.44,3.68-1.44,1.26,0,2.35.41,3.28,1.24.93.83,1.39,1.84,1.39,3.03,0,1.26-.43,2.44-1.29,3.53s-2.32,2.37-4.37,3.83c-2.85,1.99-5.24,3.73-7.16,5.22-1.92,1.49-3.64,2.8-5.17,3.93l-1.09-.99Z"/>
  <path d="M324.74,78.23c-3.25,0-6.16-.38-8.75-1.14-2.58-.76-4.97-1.71-7.16-2.83l.1-11.83h.99l3.38,5.96c1.46,2.65,3.06,4.62,4.82,5.91,1.75,1.29,3.99,1.94,6.71,1.94,3.18,0,5.75-.71,7.7-2.14,1.95-1.42,2.93-3.33,2.93-5.72,0-2.19-.7-3.98-2.09-5.37s-3.98-2.65-7.75-3.78l-4.17-1.29c-4.04-1.19-7.22-3.05-9.54-5.57-2.32-2.52-3.48-5.6-3.48-9.24,0-4.37,1.72-8.08,5.17-11.13,3.44-3.05,8.38-4.57,14.81-4.57,2.58,0,5.02.28,7.31.84,2.29.56,4.49,1.41,6.61,2.53l-.6,10.74h-.99l-3.48-6.16c-1.26-2.19-2.5-3.73-3.73-4.62-1.23-.89-3.07-1.34-5.52-1.34-2.25,0-4.37.63-6.36,1.89-1.99,1.26-2.98,3.05-2.98,5.37s.84,4.04,2.53,5.37c1.69,1.33,4.19,2.55,7.5,3.68l4.47,1.29c4.77,1.46,8.18,3.46,10.24,6.01,2.05,2.55,3.08,5.62,3.08,9.19,0,4.84-1.91,8.71-5.72,11.63-3.81,2.92-9.16,4.37-16.05,4.37Z"/>
  <path d="M362.41,78.23c-2.39,0-4.41-.83-6.06-2.49-1.66-1.66-2.49-3.64-2.49-5.96s.83-4.34,2.49-6.06c1.66-1.72,3.68-2.58,6.06-2.58s4.41.86,6.06,2.58c1.66,1.72,2.48,3.74,2.48,6.06s-.83,4.31-2.48,5.96c-1.66,1.66-3.68,2.49-6.06,2.49Z"/>
</svg>